SplineFontDB: 3.0
FontName: ac
FullName: ac
FamilyName: ac
Weight: Medium
Copyright: a Created by digit with FontForge 2.0 (http://fontforge.sf.net)
UComments: "2015-3-17: Created." 
Version: 001.000
ItalicAngle: 0
UnderlinePosition: -100
UnderlineWidth: 50
Ascent: 800
Descent: 200
LayerCount: 2
Layer: 0 0 "Back"  1
Layer: 1 0 "Fore"  0
NeedsXUIDChange: 1
XUID: [1021 255 1586799369 13695890]
FSType: 0
OS2Version: 0
OS2_WeightWidthSlopeOnly: 0
OS2_UseTypoMetrics: 1
CreationTime: 1426619098
ModificationTime: 1426647709
OS2TypoAscent: 0
OS2TypoAOffset: 1
OS2TypoDescent: 0
OS2TypoDOffset: 1
OS2TypoLinegap: 90
OS2WinAscent: 0
OS2WinAOffset: 1
OS2WinDescent: 0
OS2WinDOffset: 1
HheadAscent: 0
HheadAOffset: 1
HheadDescent: 0
HheadDOffset: 1
OS2Vendor: 'PfEd'
MarkAttachClasses: 1
DEI: 91125
Encoding: ISO8859-1
UnicodeInterp: none
NameList: Adobe Glyph List
DisplaySize: -24
AntiAlias: 1
FitToEm: 1
WinInfo: 0 13 17
BeginPrivate: 0
EndPrivate
BeginChars: 256 95

StartChar: space
Encoding: 32 32 0
Width: 1000
VWidth: 0
LayerCount: 2
Fore
SplineSet
144 83 m 31,0,-1
EndSplineSet
Validated: 1
EndChar

StartChar: underscore
Encoding: 95 95 1
Width: 1000
VWidth: 0
Flags: W
HStem: -200.377 200.377<611.822 969.398>
LayerCount: 2
Fore
SplineSet
0 -114.754 m 5
 0 -11.04 157.938 0 954 0 c 7
 1005.95 0 1012.29 -200.377 964 -200.377 c 5
 0 -196.377 0 -198.377 0 -114.754 c 5
EndSplineSet
Validated: 33
EndChar

StartChar: period
Encoding: 46 46 2
Width: 1000
VWidth: 0
Flags: W
HStem: 0 399.623<105.641 229.495>
LayerCount: 2
Fore
SplineSet
0 215.623 m 7
 0 319.337 88.2861 399.623 192 399.623 c 31
 355.416 399.623 481.416 0 318 0 c 7
 49.7992 0 0 -0.231766 0 215.623 c 7
EndSplineSet
Validated: 33
EndChar

StartChar: one
Encoding: 49 49 3
Width: 1000
VWidth: 0
Flags: W
HStem: -200 200<196 395.714 418 572 593.21 800.434> 602 196<199.566 406.79 603.412 804>
VStem: 0 196<-0.393845 607.032> 412 166<-200 0> 804 196<-5.03175 602.394>
LayerCount: 2
Fore
SplineSet
418 0 m 25
 572 0 l 25
 578 -200 l 25
 412 -200 l 25
 418 0 l 25
398 0 m 3
 415.723 0 402.944 -196 394 -196 c 3
 174.77 -196 0 -198 0 -198 c 3
 0 185.76 0 416.24 0 800 c 3
 0 807.527 171.995 798 406 798 c 1
 418.168 798 434.685 601.999 396 602 c 1
 242.309 602 196 614.561 196 600 c 3
 196 365.365 196 242.634 196 8 c 3
 196 -4.37695 210 0 398 0 c 3
602 602 m 0
 584.277 602 597.056 798 606 798 c 0
 825.23 798 1000 800 1000 800 c 0
 1000 416.24 1000 185.76 1000 -198 c 0
 1000 -205.527 828.005 -196 594 -196 c 1
 581.832 -196 565.315 0.000976562 604 0 c 1
 757.691 0 804 -12.5605 804 2 c 0
 804 236.635 804 359.366 804 594 c 0
 804 606.377 790 602 602 602 c 0
EndSplineSet
Validated: 33
EndChar

StartChar: exclam
Encoding: 33 33 4
Width: 1000
VWidth: 0
Flags: W
HStem: -2 162<351.917 568.143>
VStem: 400 180<314.957 505.578>
LayerCount: 2
Fore
SplineSet
362 -2 m 27
 286.921 -2 390.921 160 466 160 c 27
 535.644 160 638 181.644 638 112 c 27
 638 -4.46094 478.461 -2 362 -2 c 27
400 322 m 27
 400 515.642 333.358 802 527 802 c 27
 709.912 802 580 518.912 580 336 c 27
 580 265.588 400 251.588 400 322 c 27
EndSplineSet
Validated: 33
EndChar

StartChar: quotedbl
Encoding: 34 34 5
Width: 1000
VWidth: 0
Flags: W
HStem: 780.2 20G<5.08789 98 607.088 700>
VStem: 0 196<496.089 753.828> 602 196<496.089 753.828>
LayerCount: 2
Fore
SplineSet
0 800.2 m 5
 196 798.201 196 774.63 196 686.2 c 4
 196 552.201 184 368.201 118 368.2 c 5
 0 368.201 10.1758 606.341 0 800.2 c 5
602 800.2 m 5
 798 798.201 798 774.63 798 686.2 c 4
 798 552.201 786 368.201 720 368.2 c 5
 602 368.201 612.176 606.341 602 800.2 c 5
EndSplineSet
Validated: 1
EndChar

StartChar: quotesingle
Encoding: 39 39 6
Width: 1000
VWidth: 0
Flags: W
HStem: 780.2 20G<407.088 500>
VStem: 402 196<496.089 753.828>
LayerCount: 2
Fore
SplineSet
402 800.2 m 1
 598 798.201 598 774.63 598 686.2 c 0
 598 552.201 586 368.201 520 368.2 c 1
 402 368.201 412.176 606.341 402 800.2 c 1
EndSplineSet
Validated: 1
EndChar

StartChar: parenleft
Encoding: 40 40 7
Width: 1000
VWidth: 0
Flags: W
HStem: -194 194<446.705 748.258> 568 232<448.842 762.02>
VStem: 0 198<198.394 386.799>
LayerCount: 2
Fore
SplineSet
588 0 m 31
 681 0 808 1 808 -92 c 31
 808 -172.688 708.688 -194 628 -194 c 31
 316.867 -194 0 -13.1328 0 298 c 31
 0 609.729 310.271 800 622 800 c 31
 717.99 800 838 777.99 838 682 c 31
 838 583.281 710.719 568 612 568 c 31
 418.381 568 198 487.619 198 294 c 31
 198 103.523 397.523 0 588 0 c 31
EndSplineSet
Validated: 33
EndChar

StartChar: parenright
Encoding: 41 41 8
Width: 1000
VWidth: 0
Flags: W
HStem: -200 200<72.574 408.164> 600 194<87.131 391.973>
VStem: 640 198<196.789 410.952>
LayerCount: 2
Fore
SplineSet
250 600 m 0
 157.004 600.903 48.7802 600.916 30 692 c 24
 13.7061 771.025 129.313 794.339 210 794 c 0
 686 792 836.122 613.127 838 302 c 24
 839.882 -9.72363 728 -200 216 -200 c 0
 120.009 -200 -9.55147 -177.515 0 -82 c 24
 9.69531 14.9541 138.563 0 236 0 c 0
 496 0 635.389 108.399 640 306 c 24
 644.443 496.425 456 598 250 600 c 0
EndSplineSet
Validated: 33
EndChar

StartChar: asterisk
Encoding: 42 42 9
Width: 1000
VWidth: 0
Flags: H
HStem: 112 150<213.823 328.291> 312 258<659.749 785.242> 320.62 19.5801<448.246 476.124> 372.24 28.4795<526.16 569.618>
VStem: 364 222<-121.63 131.566> 370 224<514.992 684.196> 486.8 19.7998<253.775 320.518> 495.6 19.8008<401.725 441.136>
LayerCount: 2
Fore
SplineSet
389.439 311.951 m 27x92
 389.439 320.012 392.182 332.118 385.92 332.118 c 27
 297.376 332.118 320.545 117.24 232 117.24 c 27
 138.305 117.24 0 -83.7324 0 36.8994 c 27
 0 171.046 91.0088 271.74 195.2 271.74 c 27
 272.177 271.74 305.423 352.286 382.399 352.286 c 27
 387.996 352.286 386.235 370.62 380.64 370.62 c 27
 303.059 370.62 264.781 310.88 187.2 310.88 c 27
 78.9961 310.88 19.2002 455.848 19.2002 595.16 c 27
 19.2002 726.743 172.999 523.06 275.2 523.06 c 27
 330.712 523.06 325.128 399.954 380.64 399.954 c 27
 390.57 399.954 396.479 412.837 396.479 425.622 c 27xb1
 396.479 497.831 296 485.872 296 558.08 c 27
 296 657.889 293.679 794.979 371.2 794.979 c 27
 446.674 794.979 475.2 682.032 475.2 584.86 c 27xb4
 475.2 520.862 412.32 506.12 412.32 442.122 c 27
 412.32 429.955 414.311 414.621 423.76 414.621 c 27xb1
 499.121 414.621 486.238 588.979 561.6 588.979 c 27
 655.366 588.979 798.399 763.264 798.399 642.54 c 27
 798.399 497.318 729.999 323.24 649.6 323.24 c 3xc1
 512.783 323.24 486.547 385.287 424.64 385.287 c 3
 419.106 385.287 417.487 355.953 426.399 355.953 c 27
 507.008 355.953 543.392 277.92 624 277.92 c 27
 732.181 277.92 800 193.383 800 1.87988 c 3
 800 -137.284 516.8 -14.8369 516.8 164.62 c 3
 516.8 243.945 415.84 253.226 415.84 337.618 c 27
 415.84 347.705 405.28 325.705 405.28 315.618 c 27x92
 405.28 213.078 468.8 168.279 468.8 65.7402 c 27
 468.8 -46.3047 471.024 -200 384 -200 c 27
 295.173 -200 291.2 -46.5654 291.2 67.7998 c 27x98
 291.2 175.037 389.439 204.714 389.439 311.951 c 27x92
EndSplineSet
EndChar

StartChar: plus
Encoding: 43 43 10
Width: 1000
VWidth: 0
Flags: H
HStem: 0 21G<365.391 462.509> 258 262<633.242 937.255> 276 250<22.354 376.569 592.306 910.758>
LayerCount: 2
Fore
SplineSet
-1.12012 440.12 m 7xa0
 -1.12012 478.172 4.31934 526.98 36.7197 526.98 c 31
 154.781 526.98 234.621 526.98 339.44 526.98 c 7xa0
 353.2 526.98 317.08 644.581 317.08 720.9 c 31
 317.08 809.348 424.088 795.64 499.4 795.64 c 31
 589.849 795.64 434.751 524.96 525.2 524.96 c 31
 631.195 524.96 690.965 520.92 796.96 520.92 c 31
 884.93 520.92 874.609 256.3 786.64 256.3 c 31xc0
 689.812 256.3 635.788 276.5 538.96 276.5 c 31
 473.672 276.5 525.2 266.443 525.2 80.5596 c 7
 525.2 -1.99023 431.477 -4.28027 361.8 -4.28027 c 31
 264.432 -4.28027 395.827 274.48 284.4 274.48 c 7
 40.7422 274.48 -1.12012 209.831 -1.12012 440.12 c 7xa0
EndSplineSet
EndChar

StartChar: comma
Encoding: 44 44 11
Width: 1000
VWidth: 0
Flags: W
LayerCount: 2
Fore
SplineSet
0 -196.377 m 7
 0 211.745 -2.0127 399.623 150 399.623 c 7
 231.44 399.623 398 406.788 398 351.623 c 7
 398 23.5986 0 -210.377 0 -196.377 c 7
EndSplineSet
Validated: 33
EndChar

StartChar: semicolon
Encoding: 59 59 12
Width: 1000
VWidth: 0
Flags: W
HStem: 400 399.623<105.64 229.495>
LayerCount: 2
Fore
SplineSet
0 -196.377 m 7
 0 211.745 -2.0127 399.623 150 399.623 c 7
 231.44 399.623 398 406.788 398 351.623 c 7
 398 23.5986 0 -210.377 0 -196.377 c 7
0 615.623 m 3
 0 719.337 88.2861 799.623 192 799.623 c 27
 355.416 799.623 481.416 400 318 400 c 3
 49.7988 400 0 399.769 0 615.623 c 3
EndSplineSet
Validated: 33
EndChar

StartChar: colon
Encoding: 58 58 13
Width: 1000
VWidth: 0
Flags: WO
HStem: 0 399.623<105.641 229.495> 400 399.623<105.64 229.495>
LayerCount: 2
Fore
SplineSet
0 215.623 m 7
 0 319.337 88.2861 399.623 192 399.623 c 31
 355.416 399.623 481.416 0 318 0 c 7
 49.7992 0 0 -0.231766 0 215.623 c 7
0 615.623 m 7
 0 719.337 88.2861 799.623 192 799.623 c 31
 355.416 799.623 481.416 400 318 400 c 7
 49.7988 400 0 399.769 0 615.623 c 7
EndSplineSet
Validated: 33
EndChar

StartChar: hyphen
Encoding: 45 45 14
Width: 1000
VWidth: 0
Flags: W
HStem: 201.623 199.623<523.329 814.822>
LayerCount: 2
Fore
SplineSet
0 287.246 m 7
 0 390.96 -38.0625 401.246 758 401.246 c 7
 944 401.246 1016 201.623 884 201.623 c 7
 615.799 201.623 0 200.141 0 287.246 c 7
EndSplineSet
Validated: 33
EndChar

StartChar: asciitilde
Encoding: 126 126 15
Width: 1000
VWidth: 0
Flags: H
HStem: 0 200<601.925 828.585> 398 192<124.231 406.103>
VStem: 404 198<206.266 392.239>
LayerCount: 2
Fore
SplineSet
-1.59961 206 m 7
 -1.59961 506.107 29.8467 590 166.4 590 c 31
 229.451 590 264.949 584 328 584 c 31
 460.554 584 480 394.042 480 204 c 7
 480 202 578.563 200 641.6 200 c 31
 696.64 200 623.384 376 632 376 c 7
 696.923 376 798.4 394 798.4 382 c 7
 798.4 214.909 776.873 0 643.2 0 c 31
 577.68 0 542.037 0 475.2 0 c 7
 284.8 0 321.6 212.436 321.6 396 c 7
 321.6 400.472 237.17 398 192 398 c 7
 129.935 398 171.396 202 164.8 202 c 7
 99.8916 202 -1.59961 204 -1.59961 206 c 7
EndSplineSet
EndChar

StartChar: grave
Encoding: 96 96 16
Width: 1000
VWidth: 0
Flags: W
HStem: 603.623 196<246.372 504.111>
LayerCount: 2
Fore
SplineSet
200 603.623 m 5
 201.999 799.623 225.57 799.623 314 799.623 c 4
 447.999 799.623 631.999 787.623 632 721.623 c 5
 631.999 603.623 393.859 613.799 200 603.623 c 5
EndSplineSet
Validated: 1
EndChar

StartChar: slash
Encoding: 47 47 17
Width: 1000
VWidth: 0
Flags: W
LayerCount: 2
Fore
SplineSet
679.801 752.888 m 5
 771.524 704.479 707.569 559.648 336 -144.377 c 4
 311.751 -190.323 131.584 -102.397 154.122 -59.6934 c 5
 607.615 790.986 605.846 791.92 679.801 752.888 c 5
EndSplineSet
Validated: 33
EndChar

StartChar: backslash
Encoding: 92 92 18
Width: 1000
VWidth: 0
Flags: W
LayerCount: 2
Fore
SplineSet
740 -126.377 m 5
 649.315 -176.705 563.023 -43.9658 176.733 652.092 c 4
 151.523 697.518 323.654 800.289 347.086 758.068 c 5
 811.369 -86.7705 813.119 -85.7988 740 -126.377 c 5
EndSplineSet
Validated: 33
EndChar

StartChar: bracketleft
Encoding: 91 91 19
Width: 1000
VWidth: 0
HStem: -196.377 196.377<408.423 762.828> 593.623 202<434.123 800.024>
VStem: 200 200<-4.78943 606.144>
LayerCount: 2
Fore
SplineSet
758 0 m 7
 775.723 0 768.944 -196.377 760 -196.377 c 7
 540.77 -196.377 200 -191.299 200 -166 c 7
 200 217.76 200 402.24 200 786 c 7
 200 793.527 563.995 795.623 798 795.623 c 7
 812.56 795.623 809.416 593.623 796 593.623 c 7
 642.309 593.623 402 616.183 402 601.623 c 7
 402 366.988 400 234.634 400 0 c 7
 400 -12.3771 570 0 758 0 c 7
EndSplineSet
Validated: 33
EndChar

StartChar: bracketright
Encoding: 93 93 20
Width: 1000
VWidth: 0
Flags: W
HStem: -196 202<199.976 565.877> 599.623 196.377<237.172 591.577>
VStem: 600 200<-6.521 604.412>
LayerCount: 2
Fore
SplineSet
242 599.623 m 4
 224.277 599.623 231.056 796 240 796 c 4
 459.23 796 800 790.922 800 765.623 c 4
 800 381.863 800 197.383 800 -186.377 c 4
 800 -193.904 436.005 -196 202 -196 c 4
 187.439 -196 190.584 6 204 6 c 4
 357.691 6 598 -16.5605 598 -2 c 4
 598 232.635 600 364.989 600 599.623 c 4
 600 612 430 599.623 242 599.623 c 4
EndSplineSet
Validated: 33
EndChar

StartChar: asciicircum
Encoding: 94 94 21
Width: 1000
VWidth: 0
HStem: 600 194<357.826 640.343>
VStem: 0 202<194 477.567> 800 200<200 472.463>
LayerCount: 2
Fore
SplineSet
498 794 m 31
 748.331 794 1000 644.331 1000 394 c 31
 1000 200 l 7
 922 200 800 122 800 200 c 31
 800 278.784 798 323.216 798 402 c 31
 798 541.535 639.535 600 500 600 c 31
 359.384 600 200 540.616 200 400 c 31
 200 321.996 202 278.004 202 200 c 31
 202 121.186 68.2646 194 0 194 c 4
 0 194 0 319.66 0 400 c 31
 0 647.654 250.346 794 498 794 c 31
EndSplineSet
Validated: 33
EndChar

StartChar: c
Encoding: 99 99 22
Width: 1000
VWidth: 0
Flags: HW
HStem: 0 162<239.746 626.507> 388 214<799.769 972> 446 156<472.643 721.168>
VStem: 2 194<201.159 387.647>
LayerCount: 2
Fore
SplineSet
2 306 m 0xb0
 0 628 10 602 584 604 c 0xb0
 664 604.278 778 604 778 604 c 0
 778 526 794 390 778 390 c 0xd0
 588 390 792 446 410 446 c 0
 312.872 446 196 454 196 308 c 0
 196 147.92 255.919 162 416 162 c 0
 860 162 646.5 226.983 774 170 c 24
 833.817 143.266 774 70.2646 774 2 c 0
 774 2 480 0 402 0 c 0
 142.793 0 3.57766 51.997 2 306 c 0xb0
EndSplineSet
EndChar

StartChar: C
Encoding: 67 67 23
Width: 1000
VWidth: 0
Flags: HW
HStem: 0 202<597.743 972> 0 172<321.367 535.67> 600 200<695.302 974> 646 154<301.781 676.163>
VStem: 0 194<342.048 593.208>
LayerCount: 2
Fore
SplineSet
0 504 m 0x48
 0 796 32 798 606 800 c 0x58
 686 800.278 806 800 806 800 c 4
 806 722 822 600 806 600 c 4x28
 636.625 600 568 646 394 646 c 0
 296.872 646 194 652 194 506 c 0
 194 345.92 245.919 172 406 172 c 0x58
 482 172 657.254 262.825 798 202 c 28
 870.348 170.734 804 68.2646 804 0 c 4x88
 804 0 480 0 402 0 c 0
 142.793 0 0 249.992 0 504 c 0x48
EndSplineSet
EndChar

StartChar: D
Encoding: 68 68 24
Width: 1000
VWidth: 0
Flags: HW
HStem: 0 174<204 532.723> 600 194<196.58 215.761 342.299 503.969>
VStem: 806 194<266.951 382.33>
LayerCount: 2
Fore
SplineSet
798 314 m 24
 799.494 116.295 660 0 400 0 c 0
 244.001 0 0 0 0 0 c 0
 0 78 2.27637 730.476 142 550 c 0
 238 426 204 174 204 174 c 0
 376 174 604 168 604 312 c 0
 604 452.617 540 600 406 600 c 0
 327.996 600 276.246 564.088 206 598 c 24
 105.648 646.445 0 727.735 0 796 c 0
 0 796 236 796 394 794 c 0
 642.756 790.851 796.151 558.675 798 314 c 24
EndSplineSet
EndChar

StartChar: a
Encoding: 97 97 25
Width: 1000
VWidth: 0
Flags: HW
HStem: 0 21G<272.396 968> 432 172<412.804 582.322> 446 154<253.234 603.073>
VStem: 2 194<192.191 391.031> 794 174<160.257 334.555>
LayerCount: 2
Fore
SplineSet
0 304 m 4xb8
 -1.62012 394 -1.62012 606 304.561 598 c 4xb8
 369.347 596.307 523.26 602 523.26 602 c 4
 523.26 524 474.651 430.592 461.7 430 c 4xd8
 417.96 428 379.08 444 330.48 444 c 4
 251.807 444 157.14 452 157.14 306 c 4
 157.14 145.92 201.046 123.56 330.48 114 c 4
 468.89 103.777 641.521 114.208 641.521 198 c 7
 641.521 343.699 618.125 601.935 690.12 574 c 4
 868.19 504.908 767.88 568 782.46 -2 c 4
 782.46 -2 387.18 -2 324 -2 c 4
 114.042 -2 4.57129 50.0547 0 304 c 4xb8
EndSplineSet
EndChar

StartChar: d
Encoding: 100 100 26
Width: 1000
VWidth: 0
Flags: HW
HStem: 0 21G<272.396 441> 446 154<253.234 485.846>
VStem: 2 194<192.191 391.031> 794 194<160.257 350.19>
LayerCount: 2
Fore
SplineSet
2 306 m 0
 0 396 8 606 304 602 c 0
 383.994 600.919 428 552 428 552 c 0
 446 530 449.989 436.592 434 436 c 0
 380 434 396 448 336 448 c 0
 238.872 448 196 454 196 308 c 0
 196 147.92 250.205 125.56 410 116 c 0
 580.876 105.777 606 104.208 606 188 c 3
 606 333.699 562.839 782.806 656 784 c 0
 812 786 812 782 800 0 c 0
 800 0 480 0 402 0 c 0
 142.793 0 7.64322 52.0549 2 306 c 0
EndSplineSet
EndChar

StartChar: b
Encoding: 98 98 27
Width: 1000
VWidth: 0
Flags: HW
HStem: 448 154<516.154 748.766>
VStem: 14 194<162.257 352.19> 806 194<194.191 393.031>
LayerCount: 2
Fore
SplineSet
800 318 m 0
 794.356 64.0547 653.207 2 394 2 c 0
 316 2 14 14 14 14 c 0
 2 796 2 800 158 798 c 0
 251.161 796.806 208 347.699 208 202 c 3
 208 118.208 215.124 107.776 386 118 c 0
 545.795 127.561 600 149.92 600 310 c 0
 600 456 595.128 444 498 444 c 0
 438 444 390 428 336 430 c 0
 320.011 430.592 324 524 342 546 c 0
 342 546 450 598 530 598 c 0
 814 598 802 408 800 318 c 0
EndSplineSet
EndChar

StartChar: e
Encoding: 101 101 28
Width: 1000
VWidth: 0
Flags: HW
HStem: -200 200<255.893 477.422> 446 138<306.061 548.84>
VStem: 2 196<75.9375 344.155> 604 382<284.727 399.397>
LayerCount: 2
Fore
SplineSet
2 306 m 0
 3.09809 474.008 156 576 444 584 c 1
 832 576 798 460 800 366 c 1
 804 298 803.998 189.731 788 190 c 0
 568.282 193.682 507.826 190 422 190 c 3
 394.148 190 564 215.985 564 352 c 7
 564 452.02 440.683 446 410 446 c 0
 312.872 446 198 400 198 254 c 0
 198 74 236 0 308 0 c 0
 342 0 459.933 10.0674 520 -50 c 24
 561.498 -91.498 508 -131.735 508 -200 c 0
 508 -200 380 -200 302 -200 c 0
 42.793 -200 0 0 2 306 c 0
EndSplineSet
EndChar

StartChar: f
Encoding: 102 102 29
Width: 1000
VWidth: 0
Flags: HW
HStem: 184 212<25.1027 212.466> 620 174<503.711 739.116>
VStem: 0 424<345.079 442.189> 218 204<-138.212 190.322>
LayerCount: 2
Fore
SplineSet
218 -120 m 27xd0
 218 0.902344 216 36.332 216 190 c 3
 216 200 128.209 184 72 184 c 27
 -7.97168 184 0 296.44 0 376 c 3
 0 412 61.1182 396 214 396 c 3
 216 396 177.605 800 502 800 c 3
 756.786 800 800 746.254 800 608 c 3
 800 582 795.125 570 778 570 c 27
 707.016 570 666.984 568 596 568 c 27
 552.923 568 545.077 626 502 626 c 3
 395.83 626 424 488.83 424 396 c 3xe0
 424 391.528 586.912 392 604 392 c 3
 646.379 392 624 266.718 624 186 c 3
 624 168.795 420 196.324 420 190 c 3
 420 42.5801 422 -23.498 422 -160 c 27
 422 -241.075 218 -201.075 218 -120 c 27xd0
EndSplineSet
EndChar

StartChar: t
Encoding: 116 116 30
Width: 1000
VWidth: 0
Flags: HW
HStem: 0 174<476.874 741.116> 610 142<160.28 217.366>
VStem: 2 424<313.469 457.78> 218 204<603.678 735.212>
LayerCount: 2
Fore
SplineSet
218 752 m 27xd0
 299.075 752 340.925 792 422 792 c 27
 495.32 792 422 751.42 422 604 c 3xd0
 422 597.676 626 625.205 626 608 c 3
 626 527.282 648.379 402 606 402 c 3
 588.912 402 426 402.472 426 398 c 1
 383.574 244.994 502.836 173.493 502 174 c 1
 545.077 174 552.923 232 596 232 c 27
 666.984 232 707.016 230 778 230 c 27
 795.125 230 800 218 800 192 c 3
 800 53.7461 756.786 0 502 0 c 1
 -54.4619 4.68457 186 82 204 396 c 1
 208 424 2 382 2 418 c 3xe0
 2 497.56 -5.97168 610 74 610 c 27
 130.209 610 218 594 218 604 c 3
 218 757.668 160.28 752 218 752 c 27xd0
EndSplineSet
EndChar

StartChar: g
Encoding: 103 103 31
Width: 1000
VWidth: 0
Flags: H
HStem: -200 200<89.2056 777.255> 190 190<222.899 587.933> 196 196<436.985 802.815> 580 20G<982 1000> 602 190<223.19 450.426>
LayerCount: 2
Fore
SplineSet
112 -200 m 27xb8
 34 -200 34 0 112 0 c 27
 276.58 0 369.42 0 534 0 c 27
 614.657 0 680.657 196 600 196 c 27xb8
 447.103 196 360.897 190 208 190 c 27
 91.0518 190 0 282 0 406 c 1
 0 450 0 504 0 596 c 1
 18.9153 721.664 84 790 296 792 c 1
 525.947 806.023 442 788 494 794 c 1
 571.396 794 557.513 602 396 602 c 3
 316.588 602 282.65 602 242 602 c 3
 182 602 204.407 380 242 380 c 3xd8
 310.275 380 556.909 392 596 392 c 3
 623.3 392 558.333 593.883 592 598 c 1
 672.227 596.873 764 598 800 600 c 9
 800 366 800 234 800 0 c 27
 800 -175.111 573.111 -200 398 -200 c 27
 286.46 -200 223.54 -200 112 -200 c 27xb8
EndSplineSet
EndChar

StartChar: y
Encoding: 121 121 32
Width: 1000
VWidth: 0
Flags: HW
HStem: -200 200<89.2056 777.255> 200 200<297.182 825.694> 576 20G<0 39 982 1000>
VStem: 0 200<468.888 595.565>
LayerCount: 2
Fore
SplineSet
87.5996 -200 m 31
 25.2002 -200 25.2002 0 87.5996 0 c 31
 281.664 0 391.136 0 585.2 0 c 31
 649.726 0 702.525 196 638 196 c 31
 452.044 196 347.156 200 161.2 200 c 31
 70.7461 200 -2 282 -2 406 c 5
 -2 450 -2 504 -2 596 c 5
 60.4004 576 158 610.1 158 590 c 7
 158 501.796 131.918 400 398 400 c 7
 490.36 400 542.44 404 634.8 404 c 31
 695.341 404 632.848 522.34 631.6 598 c 21
 695.781 596.873 769.2 598 798 600 c 13
 798 366 798 234 798 0 c 31
 798 -175.111 616.489 -200 476.4 -200 c 31
 324.768 -200 239.232 -200 87.5996 -200 c 31
EndSplineSet
EndChar

StartChar: h
Encoding: 104 104 33
Width: 1000
VWidth: 0
Flags: H
HStem: 0 21G<0 204> 410 196<409.782 865.044>
VStem: 0 200<0 256.456 525.288 750.63> 808 174<1.96041 269.138>
LayerCount: 2
Fore
SplineSet
0 0 m 3
 0 311.22 0 464.82 0 762 c 17
 0 837.034 198 768 200 746 c 9
 198.44 648.5 196 467.155 196 496 c 3
 196 535.446 208 608 488 608 c 3
 854.09 608 814 406 788 10 c 1
 786 -8 691.254 1.97461 614 2 c 1
 638 218 694.595 414 422 414 c 3
 161.808 414 204 178.012 204 0 c 0
 0 0 l 3
EndSplineSet
EndChar

StartChar: n
Encoding: 110 110 34
Width: 1000
VWidth: 0
Flags: HW
HStem: 0 21G<0 204> 404 194<366.395 664.195>
VStem: 0 204<0 253.737> 808 174<1.96041 266.781>
LayerCount: 2
Fore
SplineSet
0 0 m 3
 0 311.22 0 235.46 0 386 c 17
 0 461.034 194 518 196 496 c 1
 196 535.446 107.975 598 428 598 c 3
 812.021 598 818 200 800 8 c 1
 798 -10 703.254 -0.0253906 626 0 c 1
 650 216 634.329 404 336 404 c 3
 174 404 204 178.012 204 0 c 0
 0 0 l 3
EndSplineSet
EndChar

StartChar: m
Encoding: 109 109 35
Width: 1000
VWidth: 0
Flags: HW
HStem: 0 21G<0 204 409.992 600> 412 178<467.987 783.993>
VStem: 0 204<0 367.608> 408 192<0 207.387> 808 192<0 168.856>
LayerCount: 2
Fore
SplineSet
0 0 m 3
 0 311.22 0 235.46 0 386 c 17
 0 461.034 155.2 518 156.8 496 c 1
 156.8 535.446 246.38 590 502.399 590 c 1
 808.384 587.438 800 404 800 0 c 1
 800 2 708.203 -0.0253906 646.399 0 c 1
 652.399 67.4951 711.249 412 588.8 412 c 3
 388.953 412 480 194.371 480 0 c 3
 480 -2 375.147 0 326.399 0 c 1
 329.587 432.371 361.6 392 216 392 c 1
 131.063 392 163.2 178.012 163.2 0 c 0
 0 0 l 3
EndSplineSet
EndChar

StartChar: zero
Encoding: 48 48 36
Width: 1000
VWidth: 0
Flags: W
HStem: -196 196<196 396.588 593.21 800.434> 602 196<199.566 406.79 603.412 804>
VStem: 0 196<-0.393845 607.032> 804 196<-5.03175 602.394>
LayerCount: 2
Fore
SplineSet
398 0 m 3
 415.723 0 402.944 -196 394 -196 c 3
 174.77 -196 0 -198 0 -198 c 3
 0 185.76 0 416.24 0 800 c 3
 0 807.527 171.995 798 406 798 c 1
 418.168 798 434.685 601.999 396 602 c 1
 242.309 602 196 614.561 196 600 c 3
 196 365.365 196 242.634 196 8 c 3
 196 -4.37695 210 0 398 0 c 3
602 602 m 0
 584.277 602 597.056 798 606 798 c 0
 825.23 798 1000 800 1000 800 c 0
 1000 416.24 1000 185.76 1000 -198 c 0
 1000 -205.527 828.005 -196 594 -196 c 1
 581.832 -196 565.315 0.000976562 604 0 c 1
 757.691 0 804 -12.5605 804 2 c 0
 804 236.635 804 359.366 804 594 c 0
 804 606.377 790 602 602 602 c 0
EndSplineSet
Validated: 33
EndChar

StartChar: two
Encoding: 50 50 37
Width: 1000
VWidth: 0
Flags: W
HStem: -200 200<196 395.714 418 572 593.21 800.434> 0 200<420 574> 602 196<199.566 406.79 603.412 804>
VStem: 0 196<-0.393845 607.032> 414 166<0 166.667> 804 196<-5.03175 602.394>
LayerCount: 2
Fore
SplineSet
418 0 m 25xbc
 572 0 l 25
 578 -200 l 25
 412 -200 l 25
 418 0 l 25xbc
420 200 m 25x7c
 574 200 l 25
 580 0 l 25
 414 0 l 25
 420 200 l 25x7c
398 0 m 3
 415.723 0 402.944 -196 394 -196 c 3
 174.77 -196 0 -198 0 -198 c 3
 0 185.76 0 416.24 0 800 c 3
 0 807.527 171.995 798 406 798 c 1
 418.168 798 434.685 601.999 396 602 c 1
 242.309 602 196 614.561 196 600 c 3
 196 365.365 196 242.634 196 8 c 3
 196 -4.37695 210 0 398 0 c 3
602 602 m 0
 584.277 602 597.056 798 606 798 c 0
 825.23 798 1000 800 1000 800 c 0
 1000 416.24 1000 185.76 1000 -198 c 0
 1000 -205.527 828.005 -196 594 -196 c 1
 581.832 -196 565.315 0.000976562 604 0 c 1xbc
 757.691 0 804 -12.5605 804 2 c 0
 804 236.635 804 359.366 804 594 c 0
 804 606.377 790 602 602 602 c 0
EndSplineSet
Validated: 37
EndChar

StartChar: three
Encoding: 51 51 38
Width: 1000
VWidth: 0
Flags: W
HStem: -200 200<196 395.714 418 572 593.21 800.434> 0 200<214 368 420 574 634 788> 602 196<199.566 406.79 603.412 804>
VStem: 0 196<-0.393845 607.032> 208 166<4 204> 414 166<0 166.667> 628 166<0 200> 804 196<-5.03175 602.394>
LayerCount: 2
Fore
SplineSet
418 0 m 25xbf
 572 0 l 25
 578 -200 l 25
 412 -200 l 25
 418 0 l 25xbf
420 200 m 25x7f
 574 200 l 25
 580 0 l 25
 414 0 l 25
 420 200 l 25x7f
634 200 m 25
 788 200 l 25x7f
 794 0 l 25
 628 0 l 25xbf
 634 200 l 25
214 204 m 25
 368 204 l 25
 374 4 l 25
 208 4 l 25
 214 204 l 25
398 0 m 3
 415.723 0 402.944 -196 394 -196 c 3
 174.77 -196 0 -198 0 -198 c 3
 0 185.76 0 416.24 0 800 c 3
 0 807.527 171.995 798 406 798 c 1
 418.168 798 434.685 601.999 396 602 c 1
 242.309 602 196 614.561 196 600 c 3
 196 365.365 196 242.634 196 8 c 3
 196 -4.37695 210 0 398 0 c 3
602 602 m 0
 584.277 602 597.056 798 606 798 c 0
 825.23 798 1000 800 1000 800 c 0
 1000 416.24 1000 185.76 1000 -198 c 0
 1000 -205.527 828.005 -196 594 -196 c 1
 581.832 -196 565.315 0.000976562 604 0 c 1xbf
 757.691 0 804 -12.5605 804 2 c 0
 804 236.635 804 359.366 804 594 c 0
 804 606.377 790 602 602 602 c 0
EndSplineSet
Validated: 37
EndChar

StartChar: four
Encoding: 52 52 39
Width: 1000
VWidth: 0
Flags: W
HStem: -200 200<196 395.714 418 572 593.21 800.434> 0 200<218 372 418 572 620 774> 202 200<420 574> 602 196<199.566 406.79 603.412 804>
VStem: 0 196<-0.393845 607.032> 212 166<2 202> 418 154<-200 0 192.5 200 394.405 402> 614 166<0 200> 804 196<-5.03175 602.394>
LayerCount: 2
Fore
SplineSet
418 0 m 25xbf80
 572 0 l 25
 578 -200 l 25
 412 -200 l 25
 418 0 l 25xbf80
420 402 m 25
 574 402 l 25
 580 202 l 25
 414 202 l 25
 420 402 l 25
620 200 m 25x7f80
 774 200 l 25x7f80
 780 0 l 25
 614 0 l 25xbf80
 620 200 l 25x7f80
418 200 m 25
 572 200 l 25
 578 0 l 25
 412 0 l 25
 418 200 l 25
218 202 m 25
 372 202 l 25
 378 2 l 25
 212 2 l 25
 218 202 l 25
398 0 m 3
 415.723 0 402.944 -196 394 -196 c 3
 174.77 -196 0 -198 0 -198 c 3
 0 185.76 0 416.24 0 800 c 3
 0 807.527 171.995 798 406 798 c 1
 418.168 798 434.685 601.999 396 602 c 1
 242.309 602 196 614.561 196 600 c 3
 196 365.365 196 242.634 196 8 c 3
 196 -4.37695 210 0 398 0 c 3
602 602 m 0
 584.277 602 597.056 798 606 798 c 0
 825.23 798 1000 800 1000 800 c 0
 1000 416.24 1000 185.76 1000 -198 c 0
 1000 -205.527 828.005 -196 594 -196 c 1
 581.832 -196 565.315 0.000976562 604 0 c 1xbf80
 757.691 0 804 -12.5605 804 2 c 0
 804 236.635 804 359.366 804 594 c 0
 804 606.377 790 602 602 602 c 0
EndSplineSet
Validated: 37
EndChar

StartChar: five
Encoding: 53 53 40
Width: 1000
VWidth: 0
Flags: W
HStem: -200 200<196 395.714 418 572 593.21 800.434> 0 400<218 368 626 780> 0 200<418 572> 602 196<199.566 406.79 603.412 804>
VStem: 0 196<-0.393845 607.032> 208 166<200 400> 212 166<0 200> 412 166<-200 200> 620 166<0 400> 804 196<-5.03175 602.394>
LayerCount: 2
Fore
SplineSet
418 0 m 25x99c0
 572 0 l 25
 578 -200 l 25
 412 -200 l 25
 418 0 l 25x99c0
418 200 m 25x39c0
 572 200 l 25
 578 0 l 25
 412 0 l 25
 418 200 l 25x39c0
626 400 m 25x59c0
 780 400 l 25x59c0
 786 200 l 25
 620 200 l 25x39c0
 626 400 l 25x59c0
214 400 m 25
 368 400 l 25x5dc0
 374 200 l 25
 208 200 l 25x3dc0
 214 400 l 25
626 200 m 25x39c0
 780 200 l 25x39c0
 786 0 l 25
 620 0 l 25x99c0
 626 200 l 25x39c0
218 200 m 25
 372 200 l 25x3bc0
 378 0 l 25
 212 0 l 25x9bc0
 218 200 l 25
398 0 m 3
 415.723 0 402.944 -196 394 -196 c 3
 174.77 -196 0 -198 0 -198 c 3
 0 185.76 0 416.24 0 800 c 3
 0 807.527 171.995 798 406 798 c 1
 418.168 798 434.685 601.999 396 602 c 1
 242.309 602 196 614.561 196 600 c 3
 196 365.365 196 242.634 196 8 c 3
 196 -4.37695 210 0 398 0 c 3
602 602 m 0
 584.277 602 597.056 798 606 798 c 0
 825.23 798 1000 800 1000 800 c 0
 1000 416.24 1000 185.76 1000 -198 c 0
 1000 -205.527 828.005 -196 594 -196 c 1
 581.832 -196 565.315 0.000976562 604 0 c 1x99c0
 757.691 0 804 -12.5605 804 2 c 0
 804 236.635 804 359.366 804 594 c 0
 804 606.377 790 602 602 602 c 0
EndSplineSet
Validated: 37
EndChar

StartChar: six
Encoding: 54 54 41
Width: 1000
VWidth: 0
Flags: W
HStem: -196 196<196 396.588 593.21 800.434> 0 400<220 374 422 574 628 780> 602 196<199.566 406.79 603.412 804>
VStem: 0 196<-0.393845 607.032> 214 166<0 400> 414 166<0 166.667> 416 166<100 400> 620 166<0 166.667> 622 166<100 400> 804 196<-5.03175 602.394>
LayerCount: 2
Fore
SplineSet
422 400 m 25x7a40
 576 400 l 25
 582 200 l 25
 416 200 l 25
 422 400 l 25x7a40
420 200 m 25
 574 200 l 25
 580 0 l 25
 414 0 l 25x7c40
 420 200 l 25
628 400 m 25
 782 400 l 25
 788 200 l 25
 622 200 l 25x78c0
 628 400 l 25
220 400 m 25
 374 400 l 25
 380 200 l 25
 214 200 l 25
 220 400 l 25
220 200 m 25
 374 200 l 25
 380 0 l 25
 214 0 l 25xb840
 220 200 l 25
626 200 m 25
 780 200 l 25
 786 0 l 25
 620 0 l 25xb940
 626 200 l 25
398 0 m 3x7840
 415.723 0 402.944 -196 394 -196 c 3xb840
 174.77 -196 0 -198 0 -198 c 3
 0 185.76 0 416.24 0 800 c 3
 0 807.527 171.995 798 406 798 c 1
 418.168 798 434.685 601.999 396 602 c 1
 242.309 602 196 614.561 196 600 c 3
 196 365.365 196 242.634 196 8 c 3
 196 -4.37695 210 0 398 0 c 3x7840
602 602 m 0
 584.277 602 597.056 798 606 798 c 0
 825.23 798 1000 800 1000 800 c 0
 1000 416.24 1000 185.76 1000 -198 c 0
 1000 -205.527 828.005 -196 594 -196 c 1
 581.832 -196 565.315 0.000976562 604 0 c 1
 757.691 0 804 -12.5605 804 2 c 0
 804 236.635 804 359.366 804 594 c 0
 804 606.377 790 602 602 602 c 0
EndSplineSet
Validated: 37
EndChar

StartChar: seven
Encoding: 55 55 42
Width: 1000
VWidth: 0
Flags: W
HStem: -200 200<196 395.714 418 572 593.21 800.434> 0 400<220 374 628 780> 580 20G<415.4 570.6> 602 196<199.566 396.703 603.412 804>
VStem: 0 196<-0.393845 607.032> 214 166<0 400> 414 166<-200 -75 0 100 200 275> 418 154 422 154<150 200 366.667 400> 620 166<0 166.667> 622 166<100 400> 804 196<-5.03175 602.394>
LayerCount: 2
Fore
SplineSet
416 600 m 25x7c90
 570 600 l 25
 576 400 l 25
 410 400 l 25
 416 600 l 25x7c90
418 0 m 25xbd10
 572 0 l 25
 578 -200 l 25
 412 -200 l 25
 418 0 l 25xbd10
422 400 m 25x7c90
 576 400 l 25
 582 200 l 25
 416 200 l 25
 422 400 l 25x7c90
420 200 m 25
 574 200 l 25
 580 0 l 25
 414 0 l 25x7e10
 420 200 l 25
628 400 m 25
 782 400 l 25
 788 200 l 25
 622 200 l 25x7c30
 628 400 l 25
220 400 m 25
 374 400 l 25
 380 200 l 25
 214 200 l 25
 220 400 l 25
220 200 m 25
 374 200 l 25
 380 0 l 25
 214 0 l 25xbc10
 220 200 l 25
626 200 m 25
 780 200 l 25
 786 0 l 25
 620 0 l 25xbc50
 626 200 l 25
398 0 m 3x7c10
 415.723 0 402.944 -196 394 -196 c 3
 174.77 -196 0 -198 0 -198 c 3
 0 185.76 0 416.24 0 800 c 3
 0 807.527 171.995 798 406 798 c 1
 422.368 799.098 394.615 591.53 396 602 c 1
 242.309 602 196 614.561 196 600 c 3
 196 365.365 196 242.634 196 8 c 3
 196 -4.37695 210 0 398 0 c 3x7c10
602 602 m 0
 584.277 602 597.056 798 606 798 c 0
 825.23 798 1000 800 1000 800 c 0
 1000 416.24 1000 185.76 1000 -198 c 0
 1000 -205.527 828.005 -196 594 -196 c 1
 581.832 -196 565.315 0.000976562 604 0 c 1xbc10
 757.691 0 804 -12.5605 804 2 c 0
 804 236.635 804 359.366 804 594 c 0
 804 606.377 790 602 602 602 c 0
EndSplineSet
Validated: 37
EndChar

StartChar: eight
Encoding: 56 56 43
Width: 1000
VWidth: 0
Flags: W
HStem: -200 200<196 395.714 418 572 593.21 800.434> 0 21G<214 380 414 580 620 786> 580 20G<221.4 376.6 415.4 570.6 613.4 768.6> 602 196<199.566 406.79 603.412 804>
VStem: 0 196<-0.393845 607.032> 214 166<0 166.667 200 366.667> 220 154<33.3333 200 233.333 600> 414 166<-200 -75 0 100 200 275> 418 154 422 154<150 200 366.667 400> 608 166<400 600> 620 166<0 166.667> 622 166<100 400> 804 196<-5.03175 602.394>
LayerCount: 2
Fore
SplineSet
222 600 m 25x3804
 376 600 l 25
 382 400 l 25
 216 400 l 25
 222 600 l 25x3804
614 600 m 25
 768 600 l 25
 774 400 l 25
 608 400 l 25x3824
 614 600 l 25
416 600 m 25
 570 600 l 25
 576 400 l 25x3844
 410 400 l 25
 416 600 l 25
418 0 m 25xb884
 572 0 l 25
 578 -200 l 25
 412 -200 l 25
 418 0 l 25xb884
422 400 m 25x3844
 576 400 l 25
 582 200 l 25
 416 200 l 25
 422 400 l 25x3844
420 200 m 25
 574 200 l 25
 580 0 l 25
 414 0 l 25x7904
 420 200 l 25
628 400 m 25
 782 400 l 25
 788 200 l 25
 622 200 l 25x380c
 628 400 l 25
220 400 m 25x3a04
 374 400 l 25x3a04
 380 200 l 25
 214 200 l 25x3c04
 220 400 l 25x3a04
220 200 m 25
 374 200 l 25xba04
 380 0 l 25
 214 0 l 25xbc04
 220 200 l 25
626 200 m 25
 780 200 l 25
 786 0 l 25
 620 0 l 25xb814
 626 200 l 25
398 0 m 3x7804
 415.723 0 402.944 -196 394 -196 c 3
 174.77 -196 0 -198 0 -198 c 3
 0 185.76 0 416.24 0 800 c 3
 0 807.527 171.995 798 406 798 c 1
 418.168 798 434.685 601.999 396 602 c 1
 242.309 602 196 614.561 196 600 c 3
 196 365.365 196 242.634 196 8 c 3
 196 -4.37695 210 0 398 0 c 3x7804
602 602 m 0
 584.277 602 597.056 798 606 798 c 0
 825.23 798 1000 800 1000 800 c 0
 1000 416.24 1000 185.76 1000 -198 c 0
 1000 -205.527 828.005 -196 594 -196 c 1
 581.832 -196 565.315 0.000976562 604 0 c 1xb804
 757.691 0 804 -12.5605 804 2 c 0
 804 236.635 804 359.366 804 594 c 0
 804 606.377 790 602 602 602 c 0
EndSplineSet
Validated: 37
EndChar

StartChar: nine
Encoding: 57 57 44
Width: 1000
VWidth: 0
Flags: W
HStem: -200 200<196 395.714 418 572 593.21 800.434> 0 21G<214 380 414 580 620 786> 580 20G<221.4 376.6 415.4 570.6 613.4 768.6> 600 200<199.566 405.474 570 582 603.412 804>
VStem: 0 196<-0.393845 607.032> 214 166<0 166.667 200 366.667> 220 154<33.3333 200 233.333 600> 416 166<-200 -100 0 50 200 233.333> 418 154 422 166<600 800> 422 154<150 200 366.667 400> 608 166<400 600> 620 166<0 166.667> 622 166<100 400> 804 196<-5.03175 602.394>
LayerCount: 2
Fore
SplineSet
428 800 m 25x1842
 582 800 l 25x1902
 588 600 l 25x1842
 422 600 l 25x2842
 428 800 l 25x1842
222 600 m 25x2802
 376 600 l 25
 382 400 l 25
 216 400 l 25
 222 600 l 25x2802
614 600 m 25
 768 600 l 25
 774 400 l 25
 608 400 l 25x2812
 614 600 l 25
416 600 m 25x2902
 570 600 l 25
 576 400 l 25x2822
 410 400 l 25
 416 600 l 25x2902
418 0 m 25x8882
 572 0 l 25
 578 -200 l 25
 412 -200 l 25
 418 0 l 25x8882
422 400 m 25x0822
 576 400 l 25x0822
 582 200 l 25
 416 200 l 25x0902
 422 400 l 25x0822
420 200 m 25
 574 200 l 25
 580 0 l 25
 414 0 l 25x4802
 420 200 l 25
628 400 m 25
 782 400 l 25
 788 200 l 25
 622 200 l 25x0806
 628 400 l 25
220 400 m 25x0a02
 374 400 l 25x0a02
 380 200 l 25
 214 200 l 25x0c02
 220 400 l 25x0a02
220 200 m 25
 374 200 l 25x8a02
 380 0 l 25
 214 0 l 25x8c02
 220 200 l 25
626 200 m 25
 780 200 l 25
 786 0 l 25
 620 0 l 25x880a
 626 200 l 25
398 0 m 3x5802
 415.723 0 402.944 -196 394 -196 c 3
 174.77 -196 0 -198 0 -198 c 3
 0 185.76 0 416.24 0 800 c 3
 0 807.527 171.995 798 406 798 c 1
 418.168 798 434.685 601.999 396 602 c 1
 242.309 602 196 614.561 196 600 c 3
 196 365.365 196 242.634 196 8 c 3
 196 -4.37695 210 0 398 0 c 3x5802
602 602 m 0
 584.277 602 597.056 798 606 798 c 0
 825.23 798 1000 800 1000 800 c 0
 1000 416.24 1000 185.76 1000 -198 c 0
 1000 -205.527 828.005 -196 594 -196 c 1
 581.832 -196 565.315 0.000976562 604 0 c 1x9802
 757.691 0 804 -12.5605 804 2 c 0
 804 236.635 804 359.366 804 594 c 0
 804 606.377 790 602 602 602 c 0
EndSplineSet
Validated: 37
EndChar

StartChar: i
Encoding: 105 105 45
Width: 1000
VWidth: 0
HStem: 780 20G<417.604 484.077>
VStem: 404 190<55.5334 414.238 626.141 792.999> 496 16<447.008 550.741>
LayerCount: 2
Fore
SplineSet
400 80 m 27xa0
 400 205.58 400 276.42 400 402 c 27
 400 446.569 496 419.431 496 464 c 3xa0
 496 684.227 404 571.67 404 654 c 27
 404 714.71 377.207 800 458 800 c 3
 510.154 800 594 792.828 594 790 c 3
 594 719.691 594 718.02 594 672 c 27xc0
 594 582.623 512 678.009 512 458 c 3
 512 413.753 598 428.247 598 384 c 27
 598 250.618 600 175.382 600 42 c 27
 600 -37.3955 400 0.604492 400 80 c 27xa0
EndSplineSet
Validated: 33
EndChar

StartChar: l
Encoding: 108 108 46
Width: 1000
VWidth: 0
Flags: HW
HStem: 0 120<440.918 690.366> 780 20G<1.2478 98>
LayerCount: 2
Fore
SplineSet
0 800 m 1
 196 798.001 414 774.43 414 686 c 0
 414 651.564 324.541 120 430 120 c 3
 718 120 565.945 324 712 324 c 3
 802.022 324 794 243.454 794 204 c 3
 794 101.78 864 0 548 0 c 1
 94 0 226 374.386 226 566 c 3
 226 644.013 44.3437 524.881 44.3437 598 c 3
 44.3437 680.116 2.49559 752.456 0 800 c 1
EndSplineSet
EndChar

StartChar: j
Encoding: 106 106 47
Width: 1000
VWidth: 0
Flags: HW
HStem: -200 172<135.819 328.664> 568 234<485.239 579.139>
VStem: 398 236<642.769 735.42> 398 186<51.2616 224.686>
LayerCount: 2
Fore
SplineSet
398 802 m 1xd0
 594 800.001 634 774.43 634 686 c 0xe0
 634 552.001 616 568.001 550 568 c 1
 432 568.001 408.176 608.141 398 802 c 1xd0
404 402 m 1
 600 399.689 800 419.579 800 332 c 1
 800 315.111 786 270.729 786 248 c 3
 786 223.567 584 244.426 584 216 c 3
 584 61.0586 558 -198 214 -200 c 1
 0 -202 0 -91.7713 0 0 c 3
 0 82.9351 118.391 -28 236 -28 c 3
 378 -28 398 61.577 398 232 c 3xd0
 398 296.664 404.842 385.959 404 402 c 1
EndSplineSet
EndChar

StartChar: k
Encoding: 107 107 48
Width: 1000
VWidth: 0
Flags: H
HStem: 0 21G<704 975.51> 590 212<803.135 933.607>
VStem: 0 202<123.341 406.511> 414 176<272.521 403.305>
LayerCount: 2
Fore
SplineSet
0 38 m 27
 0 310.22 0 463.78 0 736 c 27
 0 818.407 202 880.407 202 798 c 27
 202 662.878 197.639 452 220 452 c 3
 368.232 452 209.768 448 358 448 c 5
 360.654 451.667 526.159 723.478 676 708 c 5
 755.991 708 784 639.729 784 572 c 27
 784 572 l 17
 600.335 493.823 450 414.49 450 240 c 1
 450 186.858 800 228.683 800 202 c 3
 800 122.908 789.02 78.7803 782 0 c 17
 246 18 361.866 -7.59863 356 260 c 1
 350 260 212.457 268.637 208 252 c 1
 208 150.588 202 183.742 202 140 c 27
 202 51.7461 0 -50.2539 0 38 c 27
EndSplineSet
EndChar

StartChar: K
Encoding: 75 75 49
Width: 1000
VWidth: 0
Flags: HW
HStem: 0 802<629.883 863.991> 408 188<215.541 403.096>
VStem: 0 202<123.341 406.511> 404 184<293.042 408>
LayerCount: 2
Fore
SplineSet
0 38 m 27x70
 0 310.22 0 463.78 0 736 c 27
 0 818.407 119.593 798 202 798 c 27
 279.472 798 195.639 600 218 600 c 3
 366.232 600 239.768 596 388 596 c 3x70
 414.306 596 417.883 802 572 802 c 3
 651.991 802 776 802.561 776 788 c 3
 776 692.975 582 667.292 582 460 c 3
 582 441.89 506 453.42 506 402 c 7
 506 165.695 778 228.683 778 202 c 3
 778 122.908 767.02 78.7803 760 0 c 17xb0
 224 18 377.866 138.401 372 406 c 1
 366 406 210.457 416.637 206 400 c 1
 206 298.588 202 241.412 202 140 c 27
 202 51.7461 0 -50.2539 0 38 c 27x70
EndSplineSet
EndChar

StartChar: u
Encoding: 117 117 50
Width: 1000
VWidth: 0
Flags: HW
HStem: 0 194<329.805 626.343> 578 20G<790 994>
VStem: 12 174<331.219 596.04> 788 204<25.9446 36 336.692 598>
LayerCount: 2
Fore
SplineSet
800 598 m 0
 800 286.78 798.78 260.06 798 44 c 17
 798 -31.0342 596 14 594 36 c 1
 594 -3.44629 510.025 0 190 0 c 0
 -8 0 -6 398 12 590 c 1
 14 608 108.746 598.025 186 598 c 1
 162 382 156 198 340 196 c 0
 690.345 192.192 596 419.988 596 598 c 0
 800 598 l 0
EndSplineSet
EndChar

StartChar: v
Encoding: 118 118 51
Width: 1000
VWidth: 0
Flags: HW
HStem: 0 21G<451 550> 574 20G<0 200 965.868 1000>
LayerCount: 2
Fore
SplineSet
400 -2.37988 m 4
 318.4 -2.37988 -1.59961 148.786 -1.59961 401.62 c 4
 -1.59961 405.66 -1.59961 597.56 -1.59961 597.56 c 4
 60.7998 597.56 114.276 653.266 158.4 597.56 c 28
 202.967 541.294 123.528 458.437 160 393.54 c 28
 226.37 275.442 395.669 174.788 396.8 173.36 c 4
 398.4 171.34 570.643 275.798 638.4 395.56 c 28
 674.671 459.67 593.331 541.034 636.8 597.56 c 28
 680.72 654.674 743.788 603.62 798.4 603.62 c 4
 798.4 603.62 798.4 397.58 798.4 395.56 c 4
 798.4 145.429 476.8 -2.37988 400 -2.37988 c 4
EndSplineSet
EndChar

StartChar: w
Encoding: 119 119 52
Width: 1000
VWidth: 0
Flags: HW
HStem: 0 178<233.019 294.074 692.407 748.599> 302 88<463.783 499.62> 560 20G<965.868 1000>
VStem: 0 202<260.325 573.986> 800 200<290.456 580>
LayerCount: 2
Fore
SplineSet
231.6 0 m 5
 150 0 -2 149.669 -2 400 c 4
 -2 404 -2 574 -2 574 c 4
 60.4004 574 111.642 626.211 158 574 c 28
 200.188 526.485 158.976 462.98 159.6 392 c 21
 161.2 300 150 170 228.4 174 c 5
 238 240 295.583 389.07 391.6 390 c 5
 486 390 554.54 178 559.6 178 c 7
 636.4 178 639.055 366.312 638 394 c 4
 634.8 478 595.272 526.19 636.4 574 c 28
 682.571 627.674 743.388 580 798 580 c 4
 798 580 798 396 798 394 c 4
 798 275.697 686.277 0 561.2 0 c 5
 394.8 0 426.8 302 383.6 302 c 5
 342 302 369.2 0 231.6 0 c 5
EndSplineSet
EndChar

StartChar: W
Encoding: 87 87 53
Width: 1000
VWidth: 0
Flags: HW
HStem: -580.521 424.03<388.12 388.12 388.12 388.12> 772.564 47.6439G<388.12 388.12>
VStem: 388.12 1.00741e-07<412.593 1258.5> 388.12 9.97439e-08<530.953 1272.82>
LayerCount: 2
Fore
SplineSet
241.76 2 m 1
 123.2 2 0 353.669 0 604 c 0
 0 608 0 778 0 778 c 0
 60.8398 778 125.036 822.748 170 774 c 24
 218.126 721.823 170.951 662.98 171.56 592 c 17
 173.12 500 96 180 298 178 c 1
 302 562 248 590 397.76 590 c 1
 557.788 584.746 506 582 500 178 c 1
 696.01 178 639.027 566.312 638 594 c 0
 634.88 678 589.729 721.593 636.439 774 c 24
 679.414 822.216 748.753 778 802 778 c 0
 802 778 802 594 802 592 c 0
 802 473.697 685.07 2 563.12 2 c 1
 426 0 436.76 400 394.64 400 c 1
 354.08 400 348 0 241.76 2 c 1
EndSplineSet
EndChar

StartChar: V
Encoding: 86 86 54
Width: 1000
VWidth: 0
Flags: HW
HStem: 0 21G<451 550>
LayerCount: 2
Fore
SplineSet
400 0 m 0
 298 0 0 329.669 0 580 c 0
 0 584 0 774 0 774 c 0
 78 774 144.846 829.154 200 774 c 24
 255.709 718.291 177.536 646.89 202 572 c 24
 255.62 407.858 394.586 175.414 396 174 c 0
 398 172 545.515 407.867 602 574 c 24
 627.109 647.852 545.664 718.034 600 774 c 24
 654.9 830.548 733.735 780 802 780 c 0
 802 780 802 576 802 574 c 0
 802 326.346 496 0 400 0 c 0
EndSplineSet
EndChar

StartChar: U
Encoding: 85 85 55
Width: 1000
VWidth: 0
Flags: HW
HStem: 0 174<356.219 647.395>
VStem: 0 202<339.736 773.983> 800 200<333.348 780>
LayerCount: 2
Fore
SplineSet
390 0 m 0
 0 0 0 329.669 0 580 c 0
 0 584 0 774 0 774 c 0
 78 774 144.846 829.154 200 774 c 24
 255.709 718.291 202 656 202 572 c 1
 202 384 192 174 386 174 c 1
 686 174 602 350 600 574 c 1
 600 668 543.664 718.034 598 774 c 24
 652.9 830.548 731.735 780 800 780 c 0
 800 780 800 576 800 574 c 0
 800 326.346 888 0 390 0 c 0
EndSplineSet
EndChar

StartChar: G
Encoding: 71 71 56
Width: 1000
VWidth: 0
Flags: HW
HStem: 0 402<624.854 971.83> 0 172<321.367 597.574> 600 200<695.302 974> 646 154<301.781 676.163>
VStem: 0 194<342.048 593.208> 624 366<199.631 392.323>
LayerCount: 2
Fore
SplineSet
0 504 m 0x4c
 0 796 32 798 606 800 c 0x5c
 686 800.278 802 800 802 800 c 0
 802 722 818 600 802 600 c 0x2c
 632.625 600 568 646 394 646 c 0
 296.872 646 194 652 194 506 c 0
 194 345.92 245.919 172 406 172 c 0x5c
 436.801 172 624 161.075 624 230 c 3
 624 296.75 606 324.949 606 386 c 3
 606 417.456 670 404 736 402 c 0x8c
 796.88 400.155 818 430.957 818 370 c 3
 818 242.512 800 46.1826 800 0 c 0
 800 0 480 0 402 0 c 0
 142.793 0 0 249.992 0 504 c 0x4c
EndSplineSet
EndChar

StartChar: F
Encoding: 70 70 57
Width: 1000
VWidth: 0
Flags: H
HStem: 204 196<258.601 626.861> 212 188<200.17 568.85> 602 198<196.791 893.434>
VStem: 16 190<-24.9795 210.865>
LayerCount: 2
Fore
SplineSet
16 -64 m 27x70
 16 195.035 0 340.965 0 600 c 27
 0 774.413 225.587 800 400 800 c 27
 541.18 800 620.82 800 762 800 c 27
 841.521 800 767.521 610 688 610 c 27
 502.334 610 479.559 602 212 602 c 3
 173.947 602 190.795 400 208 400 c 3x70
 362.44 400 305.58 396 368 396 c 27
 424.945 396 426 318.945 426 262 c 27xb0
 426 177.811 373.63 212 216 212 c 3
 181.824 212 206 82.7715 206 0 c 27
 206 -78.1904 16 -142.19 16 -64 c 27x70
EndSplineSet
EndChar

StartChar: E
Encoding: 69 69 58
Width: 1000
VWidth: 0
Flags: HW
HStem: 1.62305 196.377<643.792 990.828> 593.623 202<442.674 800.024>
LayerCount: 2
Fore
SplineSet
796 196.377 m 3
 813.72 196.377 806.944 0 798 0 c 3
 578.77 0 10 -5.29883 10 20 c 3
 10 403.76 0 410.24 0 794 c 3
 0 801.527 563.995 795.623 798 795.623 c 3
 812.56 795.623 809.416 593.623 796 593.623 c 3
 642.309 593.623 202 624.184 202 609.623 c 1
 212 456 604 444 596 400 c 1
 597.308 374.48 204 324 194 196.377 c 1
 248 192 608 196.377 796 196.377 c 3
EndSplineSet
EndChar

StartChar: braceleft
Encoding: 123 123 59
Width: 1000
VWidth: 0
Flags: W
HStem: -196.377 196.377<408.423 762.828> 182 222<0 198> 593.623 202<434.123 800.024>
VStem: 200 200<-4.78943 182 406 606.144>
LayerCount: 2
Fore
SplineSet
758 0 m 7
 775.723 0 768.944 -196.377 760 -196.377 c 7
 540.77 -196.377 200 -191.299 200 -166 c 7
 200 182 l 7
 0 182 l 7
 0 404 l 7
 198 406 l 7
 200 786 l 7
 200 793.527 563.995 795.623 798 795.623 c 7
 812.56 795.623 809.416 593.623 796 593.623 c 7
 642.309 593.623 402 616.183 402 601.623 c 7
 402 366.988 400 234.634 400 0 c 7
 400 -12.3771 570 0 758 0 c 7
EndSplineSet
Validated: 33
EndChar

StartChar: A
Encoding: 65 65 60
Width: 1000
VWidth: 0
Flags: H
VStem: 0 198<-54.6979 46.1334> 400 98<414.217 681.817>
LayerCount: 2
Fore
SplineSet
0 -30 m 17
 0 404 204.704 456.217 204 794 c 9
 287.46 777.62 418 837.931 418 752 c 3
 418 615.048 790 485.452 790 238 c 27
 790 166.235 863.765 54 792 54 c 27
 717.568 54 676.432 72 602 72 c 27
 535.658 72 662.342 242 596 242 c 27
 508.22 242 372 181.229 372 264 c 3
 372 308.046 498 365.087 498 454 c 27
 498 558.846 302 742.846 302 638 c 27
 302 356.602 198 205.398 198 -76 c 27
 198 -155.276 77.2197 -47.9404 0 -30 c 17
EndSplineSet
EndChar

StartChar: B
Encoding: 66 66 61
Width: 1000
VWidth: 0
Flags: HW
HStem: 0 174<204 376.622> 600 188<166.955 757.635>
VStem: 746 230<173.74 273.868> 804 196<456.815 717.299>
LayerCount: 2
Fore
SplineSet
584 354 m 0xd0
 588 354 776 350.234 776 198 c 3
 776 51.7578 708 0 406 0 c 0
 250.001 0 0 0 0 0 c 0
 0 78 2.27637 730.476 142 550 c 0
 238 426 204 174 204 174 c 0
 334.993 174 546 54.0127 546 228.116 c 3xe0
 546 410.127 404 180.116 402 364.116 c 0
 399.957 552.104 604 315.96 604 514 c 3
 604 646.378 478.95 600 406 600 c 0
 327.996 600 276.246 564.088 206 598 c 24
 105.648 646.445 0 727.735 0 796 c 0
 0 796 262 790 420 788 c 1
 618.595 774.976 757.289 860.599 800 574 c 1
 800 299.883 582 354 584 354 c 0xd0
EndSplineSet
EndChar

StartChar: H
Encoding: 72 72 62
Width: 1000
VWidth: 0
Flags: HW
HStem: 202 210<405.38 782.751> 202 198<200.628 563.412>
VStem: 0 198<614 755.831>
LayerCount: 2
Fore
SplineSet
0 730 m 0x60
 -5.34305 807.177 190.302 818.978 198 742 c 0
 200 722 191.193 400 204 400 c 0x60
 426.145 400 431.528 412 586 412 c 0xa0
 590.473 412 574 708 586 726 c 0
 629.887 791.831 775.467 838.415 786 760 c 0
 822 492 766 402 786 60 c 1
 790.584 -9.95312 650 -28 590 14 c 1
 576 30 592.473 202 588 202 c 0
 431.992 202 352.612 202 202 202 c 0
 192 202 224 54 200 32 c 0
 142.502 -20.7068 -2.90842 -45.9456 0 32 c 0
 10 300 18 470 0 730 c 0x60
EndSplineSet
EndChar

StartChar: I
Encoding: 73 73 63
Width: 1000
VWidth: 0
Flags: HW
HStem: 0 198<48.9929 401.848 600.147 954.794> 600 200<55.7473 393.861 604.155 932.476>
VStem: 394 210<224.242 601.731> 402 198<198.691 566.108>
LayerCount: 2
Fore
SplineSet
72 0 m 27xd0
 -5.36133 0 -17.3613 198 60 198 c 27
 169.225 198 340 191.194 340 204 c 3xd0
 340 426.144 332 445.528 332 600 c 3
 332 604.472 178.28 600 80 600 c 27
 0.880859 600 -33.1191 800 46 800 c 27
 332.26 800 493.74 800 780 800 c 27
 858.517 800 904.517 604 826 604 c 27
 715.237 604 542 606.472 542 602 c 3xe0
 542 445.992 538 352.612 538 202 c 3
 538 192 700.257 200 804 200 c 27
 882 200 882 0 804 0 c 27
 518.52 0 357.48 0 72 0 c 27xd0
EndSplineSet
EndChar

StartChar: J
Encoding: 74 74 64
Width: 1000
VWidth: 0
Flags: HW
HStem: 0 198<48.9929 401.848> 600 200<55.7473 393.861 604.155 932.476>
VStem: 394 210<224.242 601.731> 402 198<198.691 566.108>
LayerCount: 2
Fore
SplineSet
72 0 m 27xd0
 -11.6348 0 0 118.365 0 202 c 27
 0 304.963 264 191.194 264 204 c 3xd0
 264 426.144 256 445.528 256 600 c 3
 256 604.472 148.64 600 80 600 c 27
 0.880859 600 -33.1191 800 46 800 c 27
 328.36 800 487.64 800 770 800 c 27
 849.645 800 799.645 602 720 602 c 27
 620.94 602 466 606.472 466 602 c 3xe0
 466 445.992 462 352.612 462 202 c 11
 462 87.3506 350.649 14 236 14 c 27
 171.808 14 136.192 0 72 0 c 27xd0
EndSplineSet
EndChar

StartChar: L
Encoding: 76 76 65
Width: 1000
VWidth: 0
Flags: H
HStem: 0 200<272.248 925.283> 780 20G<151.802 232.577>
VStem: 140 200<467.361 771.002>
LayerCount: 2
Fore
SplineSet
752 0 m 27
 512.54 0 377.46 0 138 0 c 19
 41.801 -3.8147e-06 10.0806 50.2903 10.0806 128 c 3
 10.0806 240.38 140 404.104 140 562 c 3
 140 621.591 14 649.497 14 702 c 3
 14 772.09 107.604 800 196 800 c 3
 269.153 800 340 800.004 340 742 c 1
 344.744 535.358 242 368 214 194 c 1
 202 106 510.445 200 700 200 c 27
 780.594 200 832.594 0 752 0 c 27
EndSplineSet
EndChar

StartChar: M
Encoding: 77 77 66
Width: 1000
VWidth: 0
Flags: H
VStem: -95.5996 204<36.7498 631.629> 304.4 200<44.9211 474.436> 702.4 202<36.9775 632.162>
LayerCount: 2
Fore
SplineSet
0 62.2402 m 27
 0 322.472 0 469.269 0 729.5 c 27
 0 929.164 238.655 598.82 400 598.82 c 27
 561.346 598.82 800 929.164 800 729.5 c 27
 800 469.269 800 322.472 800 62.2402 c 27
 800 -15.7529 638.4 -15.7529 638.4 62.2402 c 27
 638.4 270.736 640 388.344 640 596.84 c 27
 640 706.046 480 508.046 480 398.84 c 27
 480 270.654 480 198.345 480 70.1602 c 27
 480 -7.12207 320 -15.042 320 62.2402 c 27
 320 193.514 320 267.566 320 398.84 c 27
 320 506.959 163.2 704.959 163.2 596.84 c 27
 163.2 388.346 163.2 270.734 163.2 62.2402 c 27
 163.2 -16.5244 0 -16.5244 0 62.2402 c 27
EndSplineSet
EndChar

StartChar: N
Encoding: 78 78 67
Width: 1000
VWidth: 0
Flags: H
HStem: 0 214<704.403 881> 594 200<198.438 272>
VStem: 0 194<27.8758 401.276> 800 200<400.254 777.915>
LayerCount: 2
Fore
SplineSet
0 76 m 27
 0 330.28 0 473.72 0 728 c 27
 0 778.622 57.3779 800 108 800 c 27
 182.88 800 288 800 300 800 c 3
 581.477 800 271.662 214 596 214 c 3
 600.472 214 600 615.012 600 764 c 3
 600 788.331 643.529 798 676 798 c 27
 729.724 798 800 791.724 800 738 c 27
 800 479.04 800 332.96 800 74 c 27
 800 4.54102 724 0 638 0 c 0
 552 0 400 0 400 212 c 3
 400 379.446 453.173 594 204 594 c 3
 187.875 594 194 206.012 194 42 c 3
 194 21.9004 140.153 0 100 0 c 27
 51.0146 0 0 27.0146 0 76 c 27
EndSplineSet
EndChar

StartChar: O
Encoding: 79 79 68
Width: 1000
VWidth: 0
Flags: H
HStem: 0 182<262.521 539.342> 628 166<271.548 532.403>
VStem: -111.12 206<327.103 493.729> 698.88 190<298.395 471.176>
LayerCount: 2
Fore
SplineSet
403.76 179.88 m 27
 526.55 179.88 651.8 251.01 651.8 373.8 c 27
 651.8 504.021 568.3 630.34 438.079 630.34 c 27
 300.722 630.34 160 551.558 160 414.2 c 27
 160 282.334 271.894 179.88 403.76 179.88 c 27
400.64 -3.94043 m 27
 175.742 -3.94043 -0.679688 185.263 -0.679688 410.16 c 27
 -0.679688 642.676 219.604 798 452.119 798 c 27
 661.84 798 800 597.661 800 387.94 c 27
 800 169.729 618.852 -3.94043 400.64 -3.94043 c 27
EndSplineSet
EndChar

StartChar: Q
Encoding: 81 81 69
Width: 1000
VWidth: 0
Flags: HW
HStem: 0 182<374.253 566.72> 628 166<382.668 642.36>
VStem: 0 206<327.103 493.729> 810 192<299.239 469.199>
LayerCount: 2
Fore
SplineSet
302 182 m 27
 446.872 182 620 229.128 620 374 c 27
 620 519.712 491.712 628 346 628 c 27
 246.267 628 206 513.733 206 414 c 27
 206 316.08 204.08 182 302 182 c 27
298 0 m 11
 100.326 0 0 212.326 0 410 c 27
 0 616.351 157.649 794 364 794 c 27
 587.521 794 798 682 800 422 c 1
 798 78 629.086 171.338 668 78 c 1
 668 -70.1338 640 -202 624 -202 c 3
 602.459 -202 432.137 0 298 0 c 11
EndSplineSet
EndChar

StartChar: P
Encoding: 80 80 70
Width: 1000
VWidth: 0
Flags: H
HStem: 602 196<218.624 378.59>
VStem: 798 202<383.825 524.85>
LayerCount: 2
Fore
SplineSet
60 46 m 27
 60 181.72 -75.7197 394 60 394 c 27
 271.796 394 598 256.204 598 468 c 27
 598 609.802 401.802 602 260 602 c 27
 143.919 602 -80.0811 798 36 798 c 27
 371.606 798 800 737.606 800 402 c 27
 800 249.291 654.709 148 502 148 c 27
 398.516 148 347.484 210 244 210 c 27
 162.1 210 325.9 0 244 0 c 27
 170.031 0 60 -27.9688 60 46 c 27
EndSplineSet
EndChar

StartChar: question
Encoding: 63 63 71
Width: 1000
VWidth: 0
Flags: W
HStem: -200 200<260.955 477.821> 160 32<448.666 609.7> 602 196<218.624 397.655>
VStem: 798 202<393.225 542.33>
LayerCount: 2
Fore
SplineSet
272 -200 m 27
 185.479 -200 281.479 0 368 0 c 3
 626 0 602 48.8594 602 -44 c 27
 602 -186.355 414.355 -200 272 -200 c 27
268 206 m 17
 271.223 256.335 201.361 377.681 268 376 c 9
 477.791 376 798 258.209 798 468 c 27
 798 684.23 476.23 602 260 602 c 27
 143.919 602 -80.0811 798 36 798 c 3
 704.003 798 1000 808.445 1000 402 c 3
 1000 240.21 892.522 188 770 188 c 27
 645.971 188 576.029 192 452 192 c 27
 439.52 192 464.48 160 452 160 c 27
 378.031 160 268 132.031 268 206 c 17
EndSplineSet
Validated: 33
EndChar

StartChar: equal
Encoding: 61 61 72
Width: 1000
VWidth: 0
Flags: W
HStem: -1.32227 205.527<136.625 279.97> 468.927 185.158<209.105 343.798>
LayerCount: 2
Fore
SplineSet
77.1875 -1.32227 m 24
 -9.16895 -6.64551 74.3438 198.882 160.7 204.205 c 1
 424.373 231.122 832.043 235.57 840 204 c 1
 861.876 109.166 384.689 17.6328 77.1875 -1.32227 c 24
124.556 468.927 m 24
 38.832 480.643 161.03 665.801 246.754 654.085 c 1
 510.585 628.769 911.21 553.18 912.822 520.662 c 1
 915.675 423.38 429.804 427.209 124.556 468.927 c 24
EndSplineSet
Validated: 33
EndChar

StartChar: greater
Encoding: 62 62 73
Width: 1000
VWidth: 0
Flags: W
HStem: 780 20G<114 443.827>
LayerCount: 2
Fore
SplineSet
894 302 m 0
 894 200 564.331 -200 314 -200 c 0
 120 -200 l 0
 120 -122 64.8457 -55.1543 120 0 c 24
 175.709 55.709 251.439 -33.0449 322 2 c 24
 495.25 88.0479 718.586 296.586 720 298 c 0
 722 300 494.833 512.584 320 600 c 24
 250.231 634.885 175.966 543.664 120 598 c 24
 63.4521 652.9 114 731.735 114 800 c 0
 114 800 318 800 320 800 c 0
 567.654 800 894 398 894 302 c 0
EndSplineSet
Validated: 33
EndChar

StartChar: less
Encoding: 60 60 74
Width: 1000
VWidth: 0
Flags: W
HStem: 780 20G<540.173 870>
LayerCount: 2
Fore
SplineSet
90 302 m 0
 90 398 416.346 800 664 800 c 0
 870 800 l 0
 870 731.735 920.548 652.9 864 598 c 24
 808.034 543.664 733.769 634.885 664 600 c 24
 489.167 512.584 262 300 264 298 c 0
 265.414 296.586 488.75 88.0479 662 2 c 24
 732.561 -33.0449 808.291 55.709 864 0 c 24
 919.154 -55.1543 864 -122 864 -200 c 0
 864 -200 674 -200 670 -200 c 0
 419.669 -200 90 200 90 302 c 0
EndSplineSet
Validated: 33
EndChar

StartChar: at
Encoding: 64 64 75
Width: 1000
VWidth: 0
HStem: -200 200<329.619 901.99> 600 200<416.2 812.911> 608 192<331.486 755.092>
VStem: 796 204<209 499.199>
LayerCount: 2
Fore
SplineSet
964 -200 m 27xb0
 685.54 -200 549.536 -200 250 -200 c 3
 -156.02 -200 -0.00698853 800 286 800 c 3xb0
 478.674 800 569.04 800 750 800 c 27
 995.603 800 1000 488.961 1000 222 c 3
 1000 196 708.617 200 522 200 c 27
 462.674 200 426 258.674 426 318 c 3
 426 538.445 545.633 438 642 438 c 27
 665.452 438 622.548 378 646 378 c 27
 704.5 378 796 319.5 796 378 c 27
 796 464.752 868.752 600 782 600 c 27xd0
 632.987 600 576.477 608 400 608 c 7
 165.78 608 163.78 0 398 0 c 3
 629.525 0 688.36 0 874 0 c 27
 959.533 0 1049.53 -200 964 -200 c 27xb0
EndSplineSet
Validated: 33
EndChar

StartChar: R
Encoding: 82 82 76
Width: 1000
VWidth: 0
Flags: H
HStem: 0 214<805.589 1000> 610 188<96.2716 339.861>
VStem: 0 198<59.1557 205.362> 796 204<509.205 667.306>
LayerCount: 2
Fore
SplineSet
0 412.167 m 3
 0 447.496 88.3789 468 194 468 c 3
 214.202 468 177.034 380 198 380 c 3
 251.187 380 391.229 394 438 394 c 3
 464.931 394 592 482.683 592 554 c 1
 593.785 583.409 444 610 126 610 c 1
 30.0811 610 -18.6035 798 18 798 c 3
 850.118 798 796 751.52 796 578 c 1
 796 282 574 282 602 206 c 1
 638 112 565.583 214 796 214 c 0
 796 214 796 83.46 796 0 c 0
 796 0 676.44 0 600 0 c 27
 487.485 0 396 8 396 204 c 3
 396 216.649 198 212.143 198 198 c 3
 198 41.2197 271.235 0 194 0 c 27
 117.187 0 0 -42.8135 0 34 c 27
 0 181.485 0 122.787 0 412.167 c 3
EndSplineSet
EndChar

StartChar: s
Encoding: 115 115 77
Width: 1000
VWidth: 0
Flags: HW
HStem: -198 208<297.331 632.692> -198 194<402.357 778.122> 148 144<506.435 804.26> 458 170<453.552 820.754>
VStem: 8 222<339.279 454.181>
LayerCount: 2
Fore
SplineSet
650 626 m 19x78
 703.117 626 737.815 458 588 458 c 3
 21.9014 458 230 479.438 230 412 c 3
 230 275.941 143.191 292 626 292 c 3
 772.711 292 800 170.352 800 56 c 27
 800 -117.746 607.746 -198 434 -198 c 27
 391.1 -198 324 -240.9 324 -198 c 27
 324 -113.572 179.572 10 264 10 c 27xb8
 381.906 10 448.094 -4 566 -4 c 27
 625.408 -4 654.016 148 576 148 c 3
 47.9844 148 8 93.7256 8 406 c 3
 8 518.445 19.1858 628 334 628 c 3
 531.342 628 526.758 626 650 626 c 19x78
EndSplineSet
EndChar

StartChar: S
Encoding: 83 83 78
Width: 1000
VWidth: 0
Flags: H
HStem: -198 208<71.3308 407.265> -198 194<397 765.2> 196 144<533.93 797.456> 590 210<534.812 836.284>
VStem: 0 222<512.936 623.292>
LayerCount: 2
Fore
SplineSet
702 798 m 19x78
 755.117 798 743.815 590 594 590 c 3
 392.284 590 222 673.437 222 606 c 3
 222 469.941 129.191 340 612 340 c 3
 758.711 340 794 202.414 794 78 c 27
 794 -101.4 605.4 -198 426 -198 c 27x78
 298.08 -198 225.92 -198 98 -198 c 27
 13.5723 -198 -46.4277 10 38 10 c 27xb8
 240.873 10 355.127 -4 558 -4 c 27
 636.016 -4 640.016 196 562 196 c 3
 33.9854 196 0 330.064 0 600 c 27
 0 772.323 221.677 800 394 800 c 27
 514.123 800 581.877 798 702 798 c 19x78
EndSplineSet
EndChar

StartChar: T
Encoding: 84 84 79
Width: 1000
VWidth: 0
Flags: H
HStem: 604 192<54.0975 406.396 602.15 956.321>
VStem: 400 202<64.6193 403.212> 412 190<239.579 600.959>
LayerCount: 2
Fore
SplineSet
48 604 m 27xa0
 -29.0977 604 8.90234 798 86 798 c 27
 416.72 798 603.28 798 934 798 c 27
 1009.7 798 1015.7 604 940 604 c 27
 808.171 604 602 610.77 602 600 c 3xa0
 602 365.953 602 288.9 602 90 c 27
 602 8.84277 400 -41.1572 400 40 c 27xc0
 400 255.331 412 357.001 412 592 c 3
 412 613.633 190.037 604 48 604 c 27xa0
EndSplineSet
EndChar

StartChar: X
Encoding: 88 88 80
Width: 1000
VWidth: 0
Flags: H
HStem: 0 21G<-100.4 97.5996 699.6 899.6> 304 174<312.069 496.161> 780 20G<-100.4 119.979>
VStem: -100.4 214<567.713 799.713> 309.6 192<324.658 433.909> 695.6 204<0 122.636 540.944 701.621>
LayerCount: 2
Fore
SplineSet
158.399 0 m 3
 158.399 -8 61.7754 0 0 0 c 0
 0 0 0 101.26 0 166 c 3
 0 347.648 328 197.989 328 378 c 27
 328 563.281 0 432.719 0 618 c 27
 0 688.98 0 806 0 800 c 0
 0 800 91.7432 800 150.399 800 c 27
 202.207 800 171.199 700.759 171.199 636 c 27
 171.199 511.97 292.775 478 392 478 c 27
 495.014 478 636.8 473.233 636.8 602 c 27
 636.8 678.44 575.647 798 636.8 798 c 27
 700.45 798 800 790 800 800 c 3
 800 882.68 800 670.68 800 588 c 27
 800 412.498 481.6 553.502 481.6 378 c 27
 481.6 207.964 800 306.301 800 200 c 3
 800 198 800 78 800 0 c 0
 640 0 l 3
 640 178.101 533.255 304 400 304 c 27
 266.306 304 158.399 147.851 158.399 0 c 3
EndSplineSet
EndChar

StartChar: x
Encoding: 120 120 81
Width: 1000
VWidth: 0
Flags: HW
HStem: 0 21G<0 198 800 1000> 202 196<415.544 585.813> 578 20G<2 203.329 792.252 848.662>
VStem: 0 214<473.235 597.892> 410 182<261.497 320.94> 800 200<0 96.1063 448.059 599.953>
LayerCount: 2
Fore
SplineSet
156.4 -2.67969 m 7
 156.4 -10.7598 59.7754 -2.67969 -2 -2.67969 c 4
 -2 -2.67969 -2 99.5928 -2 164.98 c 7
 -2 348.444 326 187.2 326 288.2 c 7
 326 426.094 -2 339.576 -2 518.48 c 7
 -2 550.789 -0.400391 607.36 -0.400391 601.3 c 4
 -0.400391 601.3 91.3438 601.3 150 601.3 c 31
 171.325 601.3 169.2 563.584 169.2 536.66 c 7
 169.2 425.486 295.042 399.3 391.6 399.3 c 31
 491.645 399.3 634.8 372.266 634.8 502.32 c 7
 634.8 537.598 616.003 603.32 647.6 603.32 c 31
 706.259 603.32 798 672.416 798 601.3 c 7
 798 555.149 798 540.611 798 472.02 c 7
 798 302.175 471.6 401.392 471.6 288.2 c 7
 471.6 181.064 798 306.684 798 199.32 c 7
 798 197.3 798 76.0996 798 -2.67969 c 4
 638 -2.67969 l 7
 638 177.202 510.841 201.34 398 201.34 c 31
 284.642 201.34 156.4 146.649 156.4 -2.67969 c 7
EndSplineSet
EndChar

StartChar: Y
Encoding: 89 89 82
Width: 1000
VWidth: 0
Flags: HW
VStem: 398.619 38.4762<562.705 806.187> 470.538 38.4762<5.54534 295.532> 472.336 34.5207<18.7634 357.244> 541.737 36.6782<535.315 804.313>
LayerCount: 2
Fore
SplineSet
329.199 300 m 31xb0
 329.199 481.835 1.19922 340.165 1.19922 522 c 31
 1.19922 624.96 1.19922 792 1.19922 786 c 4
 1.19922 786 92.9434 786 151.6 786 c 31
 203.407 786 172.399 686.759 172.399 622 c 31
 172.399 495.551 296.841 462 398 462 c 31
 499.52 462 638 461.1 638 588 c 31
 638 664.44 633.474 784 638 784 c 7
 706.726 784 801.199 810 801.199 786 c 7
 801.199 683.82 801.199 626.18 801.199 524 c 31
 801.199 345.885 482.8 478.115 482.8 300 c 31xb0
 482.8 192.259 492.399 131.741 492.399 24 c 7
 492.399 -26.3584 321.199 -4.07129 321.199 24 c 7xd0
 321.199 131.711 329.199 192.289 329.199 300 c 31xb0
EndSplineSet
EndChar

StartChar: o
Encoding: 111 111 83
Width: 1000
VWidth: 0
Flags: HW
HStem: 0 182<218.1 593.21> 434 166<171.885 597.785>
VStem: -106.4 206<265.041 391.558> 703.6 190<232.36 356.131>
LayerCount: 2
Fore
SplineSet
393.6 182 m 27
 498.584 182 648 160.77 648 292 c 27
 648 415.833 519.866 434 420.8 434 c 27
 316.011 434 164.8 462.986 164.8 332 c 27
 164.8 206.05 292.84 182 393.6 182 c 27
390.399 0 m 27
 206.948 0 0 98.6855 0 328 c 27
 0 565.202 245.438 600 435.199 600 c 27
 604.479 600 800 517.599 800 306 c 27
 800 73.376 576.499 0 390.399 0 c 27
EndSplineSet
EndChar

StartChar: p
Encoding: 112 112 84
Width: 1000
VWidth: 0
Flags: HW
HStem: 18 148<220.606 438.349> 364 232<-72.3555 122.325>
VStem: 798 202<185.382 328.565>
LayerCount: 2
Fore
SplineSet
60 -146 m 27
 60 53.6387 -95.6387 364 104 364 c 19
 122.325 364 151.8 348 190 348 c 3
 206.492 348 171.406 166 202 166 c 3
 481.081 166 598 23.8701 598 276 c 11
 598 417.802 401.802 410 260 410 c 27
 147.645 410 -72.3555 596 40 596 c 27
 372.438 596 800 542.438 800 210 c 27
 800 87.3789 688.621 0 566 0 c 31
 440.224 0 369.776 18 244 18 c 27
 162.1 18 325.9 -192 244 -192 c 27
 170.031 -192 60 -219.969 60 -146 c 27
EndSplineSet
EndChar

StartChar: q
Encoding: 113 113 85
Width: 1000
VWidth: 0
Flags: H
HStem: 0 178<233.32 631.345> 390 186<338.709 621.944>
VStem: 0 204<188.581 278.445> 672 328<271.42 559.019>
LayerCount: 2
Fore
SplineSet
360 178 m 27
 421.159 178 456 240.841 456 302 c 27
 456 356.332 402.332 390 348 390 c 3
 197.348 390 204 323.299 204 198 c 3
 204 173.917 298.662 178 360 178 c 27
296 0 m 27
 157.114 0 0 59.1143 0 198 c 27
 0 385.723 82.7959 576 298 576 c 3
 874.5 576 782 586.037 782 532 c 3
 782 414.763 641.163 0 642 0 c 3
 720.78 0 782 54.5996 782 0 c 27
 782 -76.7617 840.762 -196 764 -196 c 27
 611.882 -196 526.118 -202 374 -202 c 27
 294.754 -202 475.246 0 396 0 c 3
 380.38 0 335 0 296 0 c 27
EndSplineSet
EndChar

StartChar: Z
Encoding: 90 90 86
Width: 1000
VWidth: 0
Flags: H
HStem: 0 200<516.632 909.212> 600 198<77.3905 589.804> 780 20G<900.951 1000>
LayerCount: 2
Fore
SplineSet
78 798 m 17xc0
 452 800 601.902 794.627 800 800 c 1xa0
 800 718.121 790.042 502 734 502 c 3
 536.154 502 386 264 386 194 c 3
 386 177.508 566.536 200 682 200 c 27
 766.009 200 846.009 0 762 0 c 27
 485.1 0 328.9 0 52 0 c 27
 -73.582 0 80.3867 298 174 298 c 3
 225.264 298 436.471 596 398 596 c 3
 86.7803 596 184.509 600 48 600 c 27
 -30.1016 600 66.2998 720.78 78 798 c 17xc0
EndSplineSet
EndChar

StartChar: z
Encoding: 122 122 87
Width: 1000
VWidth: 0
Flags: HW
HStem: 0 188<553.02 930.22> 404 188<76.1503 380.564> 456 138<836.214 987.753>
LayerCount: 2
Fore
SplineSet
60.4004 592 m 21xc0
 359.6 594 639.521 588.627 798 594 c 5
 798 512.121 812.432 456 767.6 456 c 7xa0
 609.323 456 399.6 262 399.6 192 c 7
 399.6 175.508 596.746 188 722.8 188 c 31
 784.003 188 828.8 0 767.6 0 c 31
 521.12 0 382.08 0 135.6 0 c 31
 60.1396 0 -48.0908 200 26.7998 200 c 7
 114.932 200 470.369 414 383.6 414 c 7
 134.624 414 165.011 404 25.2002 404 c 31
 -35.041 404 46.6719 518.68 60.4004 592 c 21xc0
EndSplineSet
EndChar

StartChar: bar
Encoding: 124 124 88
Width: 1000
VWidth: 0
Flags: W
VStem: 412.757 200.28<414.545 770.396>
LayerCount: 2
Fore
SplineSet
536 -198 m 1
 432.291 -198.925 419.845 -41.0918 412.757 754.939 c 0
 412.294 806.89 612.606 815.008 613.037 766.723 c 1
 617.62 -197.274 619.621 -197.256 536 -198 c 1
EndSplineSet
Validated: 33
EndChar

StartChar: braceright
Encoding: 125 125 89
Width: 1000
VWidth: 0
Flags: HW
HStem: -200 202<7.976 373.877> 191.623 222<610 808> 595.623 196.377<45.172 399.577>
VStem: 408 200<-10.521 189.623 413.623 600.412>
LayerCount: 2
Fore
SplineSet
50 595.623 m 0
 32.2773 595.623 39.0557 792 48 792 c 0
 267.23 792 608 786.922 608 761.623 c 0
 608 413.623 l 0
 808 413.623 l 0
 808 191.623 l 0
 610 189.623 l 0
 608 -190.377 l 0
 608 -197.904 244.005 -200 10 -200 c 0
 -4.56055 -200 -1.41602 2 12 2 c 0
 165.691 2 406 -20.5605 406 -6 c 0
 406 228.635 408 360.989 408 595.623 c 0
 408 608 238 595.623 50 595.623 c 0
EndSplineSet
EndChar

StartChar: r
Encoding: 114 114 90
Width: 1000
VWidth: 0
Flags: H
HStem: 464 164<396.288 730.877>
VStem: 0 222<34.0378 215.378>
LayerCount: 2
Fore
SplineSet
0 38 m 3
 0 150.089 22 187.677 22 284 c 27
 22 367.124 0 412.876 0 496 c 27
 0 579.047 104.953 596 188 596 c 27
 203.619 596 170.381 556 186 556 c 3
 204.439 556 226.422 628 430 628 c 3
 593.212 628 786 646.076 786 408 c 3
 786 369.471 754.389 372 694 372 c 3
 561.622 372 616.018 380 566 380 c 27
 525.741 380 546.259 464 506 464 c 3
 125.663 464 186 409.088 186 392 c 3
 186 369.196 222 153.523 222 0 c 27
 222 -87.8389 0 34 0 38 c 3
EndSplineSet
EndChar

StartChar: numbersign
Encoding: 35 35 91
Width: 1000
VWidth: 0
Flags: HW
HStem: 230.038 274<440.224 549.103> 779.623 20G<140.143 273.708 742.143 875.708>
LayerCount: 2
Fore
SplineSet
0 215.623 m 3
 0 319.337 88.2861 399.623 192 399.623 c 27
 355.416 399.623 481.416 0 318 0 c 3
 49.7992 0 0 -0.231766 0 215.623 c 3
0 615.623 m 3
 0 719.337 88.2861 799.623 192 799.623 c 27
 355.416 799.623 481.416 400 318 400 c 3
 49.7988 400 0 399.769 0 615.623 c 3
392 215.623 m 3
 392 319.337 480.286 399.623 584 399.623 c 27
 747.416 399.623 873.42 0 710 0 c 3
 441.799 0 392 -0.231445 392 215.623 c 3
392 615.623 m 3
 392 719.337 480.286 799.623 584 799.623 c 27
 747.416 799.623 873.42 400 710 400 c 3
 441.799 400 392 399.769 392 615.623 c 3
EndSplineSet
EndChar

StartChar: dollar
Encoding: 36 36 92
Width: 1000
VWidth: 0
Flags: HW
HStem: -295.89 251.138<1.12096 6.40013> -295.89 234.234<6.23881 12.025> -37.4614 219.746<7.39204 9.37065> 179.823 173.865<7.9616 12.5319> 411.689 236.649<7.01469 9.39915> 655.536 253.553<7.16682 13.1421>
VStem: 0 2.70296<561.936 677.236> 6.09738 3.45728<1.99599 120.88> 6.28596 3.20584<431.839 612.682>
LayerCount: 2
Fore
SplineSet
324 388.038 m 1x0e80
 325.619 584.038 344.712 584.038 416.34 584.038 c 0
 524.879 584.038 489.239 582.038 489.24 516.038 c 1
 484.38 286.038 481.025 398.214 324 388.038 c 1x0e80
314.28 16.0381 m 1x2f
 309.42 138.037 337.271 192.593 413.1 198.038 c 1
 521.64 198.038 492.479 186.038 492.48 120.038 c 1
 492.479 2.03809 477.9 0 314.28 16.0381 c 1x2f
729 798 m 19
 772.024 798 762.87 590 641.52 590 c 3
 478.13 590 139.32 657.475 139.32 590.038 c 3
 139.32 453.979 265.024 340 656.1 340 c 3
 774.936 340 803.52 202.414 803.52 78 c 27
 803.52 -101.4 650.754 -198 505.44 -198 c 27x5e
 339.276 -198 245.543 -198 79.3799 -198 c 27
 10.9932 -198 -37.6064 10 30.7803 10 c 27x8e
 257.639 10 385.501 -4 612.36 -4 c 27
 675.553 -4 678.793 196 615.6 196 c 3x5e
 187.908 196 0 264.324 0 600 c 27
 0 772.323 179.559 800 319.14 800 c 27
 478.987 800 569.153 798 729 798 c 19
EndSplineSet
EndChar

StartChar: percent
Encoding: 37 37 93
Width: 1000
VWidth: 0
Flags: HW
HStem: 0 196<824.372 977.595> 604.038 196<46.3719 199.595>
VStem: 0 220<646.584 770.651> 778 220<42.5457 166.613>
LayerCount: 2
Fore
SplineSet
-1.59961 604.038 m 5
 -0.000976562 800.038 18.8564 800.038 89.5996 800.038 c 4
 196.799 800.038 174.399 774.453 174.4 708.453 c 5
 174.399 590.453 153.487 614.214 -1.59961 604.038 c 5
620.8 0 m 5
 622.399 196 641.256 196 712 196 c 4
 819.2 196 796.799 170.415 796.8 104.415 c 5
 796.799 -13.585 775.888 10.1758 620.8 0 c 5
779.2 776 m 5
 852.8 656 658.405 425.338 136 -29.9619 c 4
 101.907 -59.6758 -25.2871 134.383 6.40039 162 c 5
 640.843 710.069 740.938 844.596 779.2 776 c 5
EndSplineSet
EndChar

StartChar: ampersand
Encoding: 38 38 94
Width: 1000
VWidth: 0
Flags: HW
HStem: -202 198<372.135 852.108> -192 194<607.283 935.549> 594 204<130.694 288.795>
VStem: 0 188<-105.728 137.861> 330 88<-61.933 183.78> 782 214<620.827 798>
LayerCount: 2
Fore
SplineSet
297.833 -202 m 0xbc
 262.504 -202 242 -113.621 242 -8 c 0
 242 12.2021 330 -24.9658 330 -4 c 0
 330 49.1865 328 325.229 328 372 c 0
 328 398.932 281.316 594 210 594 c 0
 178.95 594 154 627.139 154 -76 c 0
 154 -171.919 0 -220.604 0 -184 c 0
 0 790.074 12.4805 798 186 798 c 8
 370.794 798 437.172 398 440 398 c 0
 534.594 398 630 382 630 796 c 0
 630 796 718.54 796 802 796 c 0
 802 796 800.32 676.422 802 600 c 0
 806 418 848 186 442 192 c 0
 429.354 192.187 433.857 -6 448 -6 c 0xbc
 604.78 -6 644.42 -2.33984 770 0 c 17
 845.97 -58.0391 774 -154 736 -194 c 1x7c
 522 -186 587.213 -202 297.833 -202 c 0xbc
EndSplineSet
EndChar
